# xmcd
#
# Track frame offsets: 
#        150
#        17619
#        35483
#        52295
#        69129
#        90165
#        107453
#        123813
#        141905
#        160392
#        178296
#        198639
#        217893
#
# Disc length: 3125 seconds
#
# Revision: 0
# Processed by: cddbd v1.5.2PL0 Copyright (c) Steve Scherf et al.
# Submitted via: ExactAudioCopyFreeDBPlugin 1.0
#
DISCID=af0c330d
DTITLE=Celine Dion - Loved Me Back To Life
DYEAR=2013
DGENRE=Country
TTITLE0=Loved Me Back To Life
TTITLE1=Someody Loves Somebody
TTITLE2=Incredible (Duet with Ne-Yo)
TTITLE3=Water And A Flame
TTITLE4=Breakaway
TTITLE5=Save Your Soul
TTITLE6=Didn't Know Love
TTITLE7=Thank You
TTITLE8=Overjoyed (Duet with Stevie Wonder)
TTITLE9=Thankful
TTITLE10=At Seventeen
TTITLE11=Always Be Your Girl
TTITLE12=Unfinished Songs
EXTD=
EXTT0=
EXTT1=
EXTT2=
EXTT3=
EXTT4=
EXTT5=
EXTT6=
EXTT7=
EXTT8=
EXTT9=
EXTT10=
EXTT11=
EXTT12=
PLAYORDER=
